<mxfile host="Electron" agent="Mozilla/5.0 (Windows NT 10.0; Win64; x64) AppleWebKit/537.36 (KHTML, like Gecko) draw.io/24.7.17 Chrome/128.0.6613.36 Electron/32.0.1 Safari/537.36" version="24.7.17">
  <diagram id="C5RBs43oDa-KdzZeNtuy" name="Page-1">
    <mxGraphModel dx="797" dy="402" grid="1" gridSize="10" guides="1" tooltips="1" connect="1" arrows="1" fold="1" page="1" pageScale="1" pageWidth="827" pageHeight="1169" math="0" shadow="0">
      <root>
        <mxCell id="WIyWlLk6GJQsqaUBKTNV-0" />
        <mxCell id="WIyWlLk6GJQsqaUBKTNV-1" parent="WIyWlLk6GJQsqaUBKTNV-0" />
        <mxCell id="A1vHnVPncBVvCbcrfG4D-27" value="" style="endArrow=none;html=1;rounded=0;" parent="WIyWlLk6GJQsqaUBKTNV-1" edge="1">
          <mxGeometry width="50" height="50" relative="1" as="geometry">
            <mxPoint x="150" y="339.71000000000004" as="sourcePoint" />
            <mxPoint x="710" y="340" as="targetPoint" />
          </mxGeometry>
        </mxCell>
        <mxCell id="A1vHnVPncBVvCbcrfG4D-0" value="Host :&amp;nbsp;&lt;div&gt;네트워킹된 주체&lt;/div&gt;" style="rounded=0;whiteSpace=wrap;html=1;" parent="WIyWlLk6GJQsqaUBKTNV-1" vertex="1">
          <mxGeometry x="70" y="10" width="100" height="40" as="geometry" />
        </mxCell>
        <mxCell id="A1vHnVPncBVvCbcrfG4D-2" value="네트워크 제공자&lt;div&gt;(Provider)&lt;/div&gt;" style="rounded=0;whiteSpace=wrap;html=1;" parent="WIyWlLk6GJQsqaUBKTNV-1" vertex="1">
          <mxGeometry x="10" y="60" width="100" height="40" as="geometry" />
        </mxCell>
        <mxCell id="A1vHnVPncBVvCbcrfG4D-3" value="네트워크 이용자&lt;div&gt;(EndPoint)&lt;/div&gt;" style="rounded=0;whiteSpace=wrap;html=1;" parent="WIyWlLk6GJQsqaUBKTNV-1" vertex="1">
          <mxGeometry x="130" y="60" width="100" height="40" as="geometry" />
        </mxCell>
        <mxCell id="A1vHnVPncBVvCbcrfG4D-4" value="Router" style="text;html=1;align=center;verticalAlign=middle;whiteSpace=wrap;rounded=0;" parent="WIyWlLk6GJQsqaUBKTNV-1" vertex="1">
          <mxGeometry x="30" y="150" width="60" height="30" as="geometry" />
        </mxCell>
        <mxCell id="A1vHnVPncBVvCbcrfG4D-5" value="KT, SK, LG.." style="text;html=1;align=center;verticalAlign=middle;whiteSpace=wrap;rounded=0;" parent="WIyWlLk6GJQsqaUBKTNV-1" vertex="1">
          <mxGeometry x="30" y="110" width="60" height="30" as="geometry" />
        </mxCell>
        <mxCell id="A1vHnVPncBVvCbcrfG4D-6" value="단말기: 네트워크 이용을 위한 기계" style="text;html=1;align=center;verticalAlign=middle;whiteSpace=wrap;rounded=0;" parent="WIyWlLk6GJQsqaUBKTNV-1" vertex="1">
          <mxGeometry x="230" y="65" width="200" height="30" as="geometry" />
        </mxCell>
        <mxCell id="A1vHnVPncBVvCbcrfG4D-7" value="Client : 목적이 &quot;요청&quot;" style="text;html=1;align=left;verticalAlign=middle;whiteSpace=wrap;rounded=0;" parent="WIyWlLk6GJQsqaUBKTNV-1" vertex="1">
          <mxGeometry x="130" y="120" width="130" height="30" as="geometry" />
        </mxCell>
        <mxCell id="A1vHnVPncBVvCbcrfG4D-8" value="Server : 목적이 &quot;응답&quot;" style="text;html=1;align=left;verticalAlign=middle;whiteSpace=wrap;rounded=0;" parent="WIyWlLk6GJQsqaUBKTNV-1" vertex="1">
          <mxGeometry x="130" y="150" width="130" height="30" as="geometry" />
        </mxCell>
        <mxCell id="A1vHnVPncBVvCbcrfG4D-9" value="Peer : 목적이 &quot;요청 및 응답&quot;" style="text;html=1;align=left;verticalAlign=middle;whiteSpace=wrap;rounded=0;" parent="WIyWlLk6GJQsqaUBKTNV-1" vertex="1">
          <mxGeometry x="130" y="180" width="170" height="30" as="geometry" />
        </mxCell>
        <mxCell id="A1vHnVPncBVvCbcrfG4D-10" value="" style="rounded=0;whiteSpace=wrap;html=1;" parent="WIyWlLk6GJQsqaUBKTNV-1" vertex="1">
          <mxGeometry x="230" y="300" width="70" height="190" as="geometry" />
        </mxCell>
        <mxCell id="A1vHnVPncBVvCbcrfG4D-11" value="" style="curved=1;endArrow=none;html=1;rounded=0;endFill=0;" parent="WIyWlLk6GJQsqaUBKTNV-1" edge="1">
          <mxGeometry width="50" height="50" relative="1" as="geometry">
            <mxPoint x="60" y="520" as="sourcePoint" />
            <mxPoint x="250" y="470" as="targetPoint" />
            <Array as="points">
              <mxPoint x="220" y="520" />
              <mxPoint x="60" y="470" />
            </Array>
          </mxGeometry>
        </mxCell>
        <mxCell id="A1vHnVPncBVvCbcrfG4D-12" value="NIC&lt;div&gt;(Network&lt;/div&gt;&lt;div&gt;Interface&lt;/div&gt;&lt;div&gt;Controller)&lt;/div&gt;" style="rounded=0;whiteSpace=wrap;html=1;" parent="WIyWlLk6GJQsqaUBKTNV-1" vertex="1">
          <mxGeometry x="310" y="430" width="90" height="60" as="geometry" />
        </mxCell>
        <mxCell id="A1vHnVPncBVvCbcrfG4D-13" value="Network" style="rounded=0;whiteSpace=wrap;html=1;" parent="WIyWlLk6GJQsqaUBKTNV-1" vertex="1">
          <mxGeometry x="310" y="390" width="90" height="30" as="geometry" />
        </mxCell>
        <mxCell id="A1vHnVPncBVvCbcrfG4D-14" value="IP (Internet Protocal)" style="text;html=1;align=center;verticalAlign=middle;whiteSpace=wrap;rounded=0;" parent="WIyWlLk6GJQsqaUBKTNV-1" vertex="1">
          <mxGeometry x="414" y="390" width="126" height="30" as="geometry" />
        </mxCell>
        <mxCell id="A1vHnVPncBVvCbcrfG4D-15" value="MAC (HW Address)" style="text;html=1;align=center;verticalAlign=middle;whiteSpace=wrap;rounded=0;" parent="WIyWlLk6GJQsqaUBKTNV-1" vertex="1">
          <mxGeometry x="414" y="440" width="126" height="30" as="geometry" />
        </mxCell>
        <mxCell id="A1vHnVPncBVvCbcrfG4D-16" value="Transport" style="rounded=0;whiteSpace=wrap;html=1;" parent="WIyWlLk6GJQsqaUBKTNV-1" vertex="1">
          <mxGeometry x="310" y="350" width="90" height="30" as="geometry" />
        </mxCell>
        <mxCell id="A1vHnVPncBVvCbcrfG4D-17" value="Transport Protocal&lt;div&gt;(ex, TCP, UDP)&lt;/div&gt;" style="text;html=1;align=center;verticalAlign=middle;whiteSpace=wrap;rounded=0;" parent="WIyWlLk6GJQsqaUBKTNV-1" vertex="1">
          <mxGeometry x="414" y="350" width="126" height="30" as="geometry" />
        </mxCell>
        <mxCell id="A1vHnVPncBVvCbcrfG4D-18" value="Application" style="rounded=0;whiteSpace=wrap;html=1;" parent="WIyWlLk6GJQsqaUBKTNV-1" vertex="1">
          <mxGeometry x="310" y="300" width="90" height="30" as="geometry" />
        </mxCell>
        <mxCell id="A1vHnVPncBVvCbcrfG4D-19" value="Process" style="text;html=1;align=center;verticalAlign=middle;whiteSpace=wrap;rounded=0;" parent="WIyWlLk6GJQsqaUBKTNV-1" vertex="1">
          <mxGeometry x="414" y="300" width="126" height="30" as="geometry" />
        </mxCell>
        <mxCell id="A1vHnVPncBVvCbcrfG4D-21" value="Socket" style="rounded=0;whiteSpace=wrap;html=1;" parent="WIyWlLk6GJQsqaUBKTNV-1" vertex="1">
          <mxGeometry x="447" y="330" width="60" height="20" as="geometry" />
        </mxCell>
        <mxCell id="A1vHnVPncBVvCbcrfG4D-22" value="Port" style="rounded=0;whiteSpace=wrap;html=1;fillColor=#6a00ff;fontColor=#ffffff;strokeColor=#3700CC;" parent="WIyWlLk6GJQsqaUBKTNV-1" vertex="1">
          <mxGeometry x="500" y="330" width="40" height="10" as="geometry" />
        </mxCell>
        <mxCell id="A1vHnVPncBVvCbcrfG4D-23" value="" style="endArrow=none;html=1;rounded=0;" parent="WIyWlLk6GJQsqaUBKTNV-1" edge="1">
          <mxGeometry width="50" height="50" relative="1" as="geometry">
            <mxPoint x="110" y="429.43" as="sourcePoint" />
            <mxPoint x="710" y="430" as="targetPoint" />
          </mxGeometry>
        </mxCell>
        <mxCell id="A1vHnVPncBVvCbcrfG4D-25" value="HW" style="text;html=1;align=center;verticalAlign=middle;whiteSpace=wrap;rounded=0;" parent="WIyWlLk6GJQsqaUBKTNV-1" vertex="1">
          <mxGeometry x="100" y="430" width="60" height="30" as="geometry" />
        </mxCell>
        <mxCell id="A1vHnVPncBVvCbcrfG4D-26" value="SW" style="text;html=1;align=center;verticalAlign=middle;whiteSpace=wrap;rounded=0;" parent="WIyWlLk6GJQsqaUBKTNV-1" vertex="1">
          <mxGeometry x="100" y="400" width="60" height="30" as="geometry" />
        </mxCell>
        <mxCell id="A1vHnVPncBVvCbcrfG4D-28" value="Kernel&lt;div&gt;(OS Program)&lt;/div&gt;" style="text;html=1;align=center;verticalAlign=middle;whiteSpace=wrap;rounded=0;" parent="WIyWlLk6GJQsqaUBKTNV-1" vertex="1">
          <mxGeometry x="140" y="350" width="80" height="30" as="geometry" />
        </mxCell>
        <mxCell id="A1vHnVPncBVvCbcrfG4D-29" value="User" style="text;html=1;align=center;verticalAlign=middle;whiteSpace=wrap;rounded=0;" parent="WIyWlLk6GJQsqaUBKTNV-1" vertex="1">
          <mxGeometry x="140" y="300" width="80" height="30" as="geometry" />
        </mxCell>
        <mxCell id="A1vHnVPncBVvCbcrfG4D-30" value="계층 (Layer)" style="rounded=0;whiteSpace=wrap;html=1;fillColor=#0050ef;fontColor=#ffffff;strokeColor=#001DBC;" parent="WIyWlLk6GJQsqaUBKTNV-1" vertex="1">
          <mxGeometry x="310" y="270" width="90" height="20" as="geometry" />
        </mxCell>
        <mxCell id="A1vHnVPncBVvCbcrfG4D-31" value="구현 방식" style="rounded=0;whiteSpace=wrap;html=1;fillColor=#0050ef;fontColor=#ffffff;strokeColor=#001DBC;" parent="WIyWlLk6GJQsqaUBKTNV-1" vertex="1">
          <mxGeometry x="414" y="270" width="136" height="20" as="geometry" />
        </mxCell>
        <mxCell id="A1vHnVPncBVvCbcrfG4D-32" value="데이터 단위" style="rounded=0;whiteSpace=wrap;html=1;fillColor=#0050ef;fontColor=#ffffff;strokeColor=#001DBC;" parent="WIyWlLk6GJQsqaUBKTNV-1" vertex="1">
          <mxGeometry x="570" y="270" width="136" height="20" as="geometry" />
        </mxCell>
        <mxCell id="A1vHnVPncBVvCbcrfG4D-33" value="Stream&lt;div&gt;(전송하고자하는 데이터 일괄)&lt;/div&gt;" style="text;html=1;align=center;verticalAlign=middle;whiteSpace=wrap;rounded=0;" parent="WIyWlLk6GJQsqaUBKTNV-1" vertex="1">
          <mxGeometry x="590" y="300" width="100" height="30" as="geometry" />
        </mxCell>
        <mxCell id="A1vHnVPncBVvCbcrfG4D-34" value="MTU (Max Transport Unit)&lt;div&gt;최대전송단위.&amp;nbsp;&lt;/div&gt;" style="text;html=1;align=center;verticalAlign=middle;whiteSpace=wrap;rounded=0;" parent="WIyWlLk6GJQsqaUBKTNV-1" vertex="1">
          <mxGeometry x="680" y="350" width="160" height="30" as="geometry" />
        </mxCell>
        <mxCell id="A1vHnVPncBVvCbcrfG4D-35" value="Segment" style="text;html=1;align=center;verticalAlign=middle;whiteSpace=wrap;rounded=0;" parent="WIyWlLk6GJQsqaUBKTNV-1" vertex="1">
          <mxGeometry x="588" y="350" width="100" height="30" as="geometry" />
        </mxCell>
        <mxCell id="A1vHnVPncBVvCbcrfG4D-36" value="전송하고싶은데이터" style="rounded=0;whiteSpace=wrap;html=1;fillColor=#b1ddf0;strokeColor=#10739e;fontColor=#000000;" parent="WIyWlLk6GJQsqaUBKTNV-1" vertex="1">
          <mxGeometry x="850" y="300" width="340" height="30" as="geometry" />
        </mxCell>
        <mxCell id="A1vHnVPncBVvCbcrfG4D-37" value="전송하고싶은데이터&lt;div&gt;를 MTU 단위로 쪼갠 데이터&lt;/div&gt;" style="rounded=0;whiteSpace=wrap;html=1;fillColor=#b1ddf0;strokeColor=#10739e;fontColor=#000000;" parent="WIyWlLk6GJQsqaUBKTNV-1" vertex="1">
          <mxGeometry x="900" y="350" width="160" height="30" as="geometry" />
        </mxCell>
        <mxCell id="A1vHnVPncBVvCbcrfG4D-38" value="전송&lt;div&gt;헤더&lt;/div&gt;" style="rounded=0;whiteSpace=wrap;html=1;fillColor=#fad7ac;strokeColor=#b46504;fontColor=#000000;" parent="WIyWlLk6GJQsqaUBKTNV-1" vertex="1">
          <mxGeometry x="850" y="350" width="50" height="30" as="geometry" />
        </mxCell>
        <mxCell id="A1vHnVPncBVvCbcrfG4D-39" value="전송하고싶은데이터&lt;div&gt;를 MTU 단위로 쪼갠 데이터&lt;/div&gt;" style="rounded=0;whiteSpace=wrap;html=1;fillColor=#b1ddf0;strokeColor=#10739e;fontColor=#000000;" parent="WIyWlLk6GJQsqaUBKTNV-1" vertex="1">
          <mxGeometry x="950" y="390" width="160" height="30" as="geometry" />
        </mxCell>
        <mxCell id="A1vHnVPncBVvCbcrfG4D-40" value="전송&lt;div&gt;헤더&lt;/div&gt;" style="rounded=0;whiteSpace=wrap;html=1;fillColor=#fad7ac;strokeColor=#b46504;fontColor=#000000;" parent="WIyWlLk6GJQsqaUBKTNV-1" vertex="1">
          <mxGeometry x="900" y="390" width="50" height="30" as="geometry" />
        </mxCell>
        <mxCell id="A1vHnVPncBVvCbcrfG4D-41" value="네트워크&lt;div&gt;주소헤더&lt;/div&gt;" style="rounded=0;whiteSpace=wrap;html=1;fillColor=#fad9d5;strokeColor=#ae4132;fontColor=#000000;" parent="WIyWlLk6GJQsqaUBKTNV-1" vertex="1">
          <mxGeometry x="850" y="390" width="50" height="30" as="geometry" />
        </mxCell>
        <mxCell id="A1vHnVPncBVvCbcrfG4D-42" value="Packet" style="text;html=1;align=center;verticalAlign=middle;whiteSpace=wrap;rounded=0;" parent="WIyWlLk6GJQsqaUBKTNV-1" vertex="1">
          <mxGeometry x="588" y="390" width="100" height="30" as="geometry" />
        </mxCell>
        <mxCell id="A1vHnVPncBVvCbcrfG4D-43" value="전송하고싶은데이터&lt;div&gt;를 MTU 단위로 쪼갠 데이터&lt;/div&gt;" style="rounded=0;whiteSpace=wrap;html=1;fillColor=#b1ddf0;strokeColor=#10739e;fontColor=#000000;" parent="WIyWlLk6GJQsqaUBKTNV-1" vertex="1">
          <mxGeometry x="1000" y="440" width="160" height="30" as="geometry" />
        </mxCell>
        <mxCell id="A1vHnVPncBVvCbcrfG4D-44" value="전송&lt;div&gt;헤더&lt;/div&gt;" style="rounded=0;whiteSpace=wrap;html=1;fillColor=#fad7ac;strokeColor=#b46504;fontColor=#000000;" parent="WIyWlLk6GJQsqaUBKTNV-1" vertex="1">
          <mxGeometry x="950" y="440" width="50" height="30" as="geometry" />
        </mxCell>
        <mxCell id="A1vHnVPncBVvCbcrfG4D-45" value="네트워크&lt;div&gt;주소헤더&lt;/div&gt;" style="rounded=0;whiteSpace=wrap;html=1;fillColor=#fad9d5;strokeColor=#ae4132;fontColor=#000000;" parent="WIyWlLk6GJQsqaUBKTNV-1" vertex="1">
          <mxGeometry x="900" y="440" width="50" height="30" as="geometry" />
        </mxCell>
        <mxCell id="A1vHnVPncBVvCbcrfG4D-46" value="프레임&lt;div&gt;시작&lt;/div&gt;" style="rounded=0;whiteSpace=wrap;html=1;fillColor=#b0e3e6;strokeColor=#0e8088;fontColor=#000000;" parent="WIyWlLk6GJQsqaUBKTNV-1" vertex="1">
          <mxGeometry x="850" y="440" width="50" height="30" as="geometry" />
        </mxCell>
        <mxCell id="A1vHnVPncBVvCbcrfG4D-47" value="프레임&lt;div&gt;끝&lt;/div&gt;" style="rounded=0;whiteSpace=wrap;html=1;fillColor=#b0e3e6;strokeColor=#0e8088;fontColor=#000000;" parent="WIyWlLk6GJQsqaUBKTNV-1" vertex="1">
          <mxGeometry x="1160" y="440" width="50" height="30" as="geometry" />
        </mxCell>
        <mxCell id="A1vHnVPncBVvCbcrfG4D-48" value="Frame" style="text;html=1;align=center;verticalAlign=middle;whiteSpace=wrap;rounded=0;" parent="WIyWlLk6GJQsqaUBKTNV-1" vertex="1">
          <mxGeometry x="588" y="440" width="100" height="30" as="geometry" />
        </mxCell>
        <mxCell id="4YhyMdetQOA3Sfs9CboO-0" value="payload" style="text;html=1;align=center;verticalAlign=middle;whiteSpace=wrap;rounded=0;" parent="WIyWlLk6GJQsqaUBKTNV-1" vertex="1">
          <mxGeometry x="1050" y="340" width="60" height="30" as="geometry" />
        </mxCell>
        <mxCell id="4YhyMdetQOA3Sfs9CboO-1" value="datagram : header + payload" style="text;html=1;align=center;verticalAlign=middle;whiteSpace=wrap;rounded=0;" parent="WIyWlLk6GJQsqaUBKTNV-1" vertex="1">
          <mxGeometry x="740" y="250" width="170" height="30" as="geometry" />
        </mxCell>
      </root>
    </mxGraphModel>
  </diagram>
</mxfile>
